<?xml version="1.0" standalone="no"?>
<!DOCTYPE svg PUBLIC "-//W3C//DTD SVG 20010904//EN"
 "http://www.w3.org/TR/2001/REC-SVG-20010904/DTD/svg10.dtd">
<svg version="1.0" xmlns="http://www.w3.org/2000/svg"
 width="214.000000pt" height="196.000000pt" viewBox="0 0 214.000000 196.000000"
 preserveAspectRatio="xMidYMid meet">

<g transform="translate(0.000000,196.000000) scale(0.100000,-0.100000)"
fill="#000000" stroke="none">
<path d="M0 1944 c0 -14 3 -14 15 -4 8 7 15 14 15 16 0 2 -7 4 -15 4 -8 0 -15
-7 -15 -16z"/>
<path d="M792 1842 c68 -65 160 -153 206 -197 65 -62 82 -84 82 -107 l0 -28
-225 0 -225 0 0 35 0 35 -315 0 c-203 0 -315 -4 -315 -10 0 -6 108 -10 305
-10 l305 0 -2 -292 -3 -293 -270 -1 c-332 -2 -335 -2 -335 -14 0 -6 108 -10
305 -10 l305 0 0 -290 0 -290 -305 0 c-264 0 -305 -2 -305 -15 0 -13 42 -15
314 -15 l315 0 3 38 3 37 223 3 222 2 0 -29 c0 -25 -28 -56 -187 -210 -120
-115 -181 -181 -169 -181 10 0 77 58 150 129 152 149 208 200 220 201 4 0 65
-56 135 -124 175 -171 214 -206 231 -206 8 0 -70 82 -173 182 -161 154 -188
185 -185 207 l3 26 223 3 222 2 0 -40 0 -40 295 0 c256 0 295 2 295 15 0 13
-38 15 -285 15 l-285 0 0 290 0 290 285 0 c183 0 285 4 285 10 0 11 -12 11
-340 14 l-225 1 -3 293 -2 292 285 0 c183 0 285 4 285 10 0 6 -105 10 -295 10
l-295 0 0 -570 0 -570 -460 0 -460 0 0 525 0 525 235 0 235 0 0 39 c0 34 7 44
58 92 207 193 353 340 335 337 -15 -2 -286 -251 -395 -363 -4 -4 -95 76 -201
179 -107 102 -202 186 -211 186 -9 0 37 -51 106 -118z"/>
</g>
</svg>
